<svg data-v-423bf9ae="" xmlns="http://www.w3.org/2000/svg" viewBox="0 0 544.9359913705555 163" class="iconAbove"><!----><!----><!----><g data-v-423bf9ae="" id="84cc41c7-60df-403e-afea-fe27f3d4b506" fill="#ffffff" transform="matrix(5.484460426963632,0,0,5.484460426963632,-2.3583116867873173,86.54661776543479)"><path d="M3.16 13.78L5.24 13.78L5.24 6.27L7.97 6.27L7.97 4.54L0.43 4.54L0.43 6.27L3.16 6.27ZM10.02 13.78L12.08 13.78L12.08 10.02C12.67 8.74 13.57 8.26 14.42 8.26C14.94 8.26 15.22 8.34 15.65 8.47L16.07 6.75C15.67 6.57 15.34 6.45 14.73 6.45C13.62 6.45 12.60 7.03 11.91 8.20L11.87 8.20L11.70 6.64L10.02 6.64ZM20.97 5.80C21.78 5.80 22.37 5.26 22.37 4.42C22.37 3.58 21.78 3.00 20.97 3.00C20.16 3.00 19.57 3.58 19.57 4.42C19.57 5.26 20.16 5.80 20.97 5.80ZM17.65 13.78L24.47 13.78L24.47 12.11L22.09 12.11L22.09 6.64L17.65 6.64L17.65 8.25L20.03 8.25L20.03 12.11L17.65 12.11ZM28.25 13.78L30.62 13.78L33.17 6.64L31.19 6.64L30.10 10.05C29.88 10.77 29.69 11.51 29.48 12.25L29.43 12.25C29.22 11.51 29.02 10.77 28.80 10.05L27.71 6.64L25.63 6.64ZM37.77 5.80C38.58 5.80 39.17 5.26 39.17 4.42C39.17 3.58 38.58 3.00 37.77 3.00C36.96 3.00 36.37 3.58 36.37 4.42C36.37 5.26 36.96 5.80 37.77 5.80ZM34.45 13.78L41.27 13.78L41.27 12.11L38.89 12.11L38.89 6.64L34.45 6.64L34.45 8.25L36.83 8.25L36.83 12.11L34.45 12.11ZM45.14 13.94C46.03 13.94 46.90 13.51 47.60 12.96L47.66 12.96L47.81 13.78L49.49 13.78L49.49 9.66C49.49 7.50 48.30 6.45 46.35 6.45C45.16 6.45 44.06 6.87 43.39 7.43L44.11 8.78C44.62 8.37 45.28 8.11 45.95 8.11C46.89 8.11 47.36 8.51 47.43 9.18C44.14 9.39 42.85 10.21 42.85 11.80C42.85 13.01 43.74 13.94 45.14 13.94ZM45.79 12.35C45.21 12.35 44.83 12.12 44.83 11.65C44.83 11.00 45.39 10.54 47.43 10.42L47.43 11.65C46.94 12.05 46.41 12.35 45.79 12.35ZM63.88 13.94C65.03 13.94 66.01 13.48 66.77 12.59L65.63 11.34C65.18 11.84 64.67 12.17 64.01 12.17C62.64 12.17 61.68 11.05 61.68 9.14C61.68 7.27 62.64 6.15 63.92 6.15C64.58 6.15 65.06 6.41 65.49 6.82L66.63 5.54C66.01 4.93 65.09 4.37 63.92 4.37C61.49 4.37 59.57 6.15 59.57 9.21C59.57 12.31 61.53 13.94 63.88 13.94ZM72.73 13.94C73.60 13.94 74.09 13.79 74.82 13.55L74.35 12.04C73.92 12.22 73.58 12.28 73.26 12.28C72.69 12.28 72.14 11.98 72.14 11.10L72.14 3.65L68.07 3.65L68.07 5.28L70.08 5.28L70.08 11.00C70.08 12.81 70.98 13.94 72.73 13.94ZM79.80 13.94C81.63 13.94 83.34 12.59 83.34 10.21C83.34 7.83 81.63 6.45 79.80 6.45C77.97 6.45 76.26 7.83 76.26 10.21C76.26 12.59 77.97 13.94 79.80 13.94ZM79.80 12.28C78.85 12.28 78.37 11.47 78.37 10.21C78.37 8.95 78.85 8.12 79.80 8.12C80.75 8.12 81.23 8.95 81.23 10.21C81.23 11.47 80.75 12.28 79.80 12.28ZM87.12 13.94C88.12 13.94 88.84 13.47 89.46 12.74L89.52 12.74L89.67 13.78L91.35 13.78L91.35 6.64L89.29 6.64L89.29 11.34C88.82 12.00 88.45 12.19 87.93 12.19C87.16 12.19 86.93 11.76 86.93 10.78L86.93 6.64L84.87 6.64L84.87 11.05C84.87 12.85 85.54 13.94 87.12 13.94ZM95.98 13.94C96.68 13.94 97.40 13.55 97.92 13.03L97.96 13.03L98.11 13.78L99.79 13.78L99.79 3.65L97.73 3.65L97.73 6.12L97.80 7.24C97.31 6.76 96.82 6.45 96.03 6.45C94.51 6.45 93.06 7.87 93.06 10.21C93.06 12.54 94.22 13.94 95.98 13.94ZM96.52 12.26C95.66 12.26 95.17 11.61 95.17 10.18C95.17 8.81 95.82 8.13 96.57 8.13C96.98 8.13 97.36 8.27 97.73 8.64L97.73 11.58C97.37 12.07 96.98 12.26 96.52 12.26Z"></path></g><!----><g data-v-423bf9ae="" id="630a9131-aa5d-46dd-ab71-e01cbf16fa5d" transform="matrix(1.570872447910539,0,0,1.570872447910539,194.59696155261008,-19.416204615406656)" stroke="none" fill="#FFFFFF"><path d="M79.819 31.377c-.146 3.156-1.882 5.77-4.226 6.573 1.652-1.278 2.756-3.564 2.756-6.182 0-.962-.142-1.843-.401-2.665-3.407-9.097-12.158-16.112-26.673-16.112-15.459 0-28.016 11.951-28.313 24.89a22.263 22.263 0 00-3.865-.336C8.55 37.546 0 44.875 0 53.914 0 62.956 6.139 70.15 16.687 70.15l61.585.133.044.001.05-.001.646.001.004-.019c13.504-.201 20.805-6.133 20.805-18.356 0-10.901-8.832-19.788-20.002-20.532z"></path></g><!----></svg>